# xmcd
#
# Track frame offsets:
#	150
#	17783
#	35350
#	50772
#	70976
#	87244
#	103584
#	120203
#	135017
#	148946
#	166361
#	182455
#	198698
#	212777
#	226993
#	243752
#	256433
#	267462
#	286505
#	307293
#
# Disc length: 4233 seconds
# Revision: 0
# Processed by: cddbd v1.5.2PL0 Copyright (c) Steve Scherf et al.
# Submitted via: dBpowerAMP V12.0
#
DISCID=1e108714
DTITLE=Various Artist - On The Road Vol 8 2017
DYEAR=2017
DGENRE=Country
TTITLE0=Troy Kemp - How We Roll Around Here
TTITLE1=Karl Broadie - Stranded
TTITLE2=John Stephan - Dance
TTITLE3=Bennett Bowtell Urquhart - Hello Blue Sky
TTITLE4=Karin Page - Keep On
TTITLE5=The Long and Short of It  - This Is The Night Of Our Life 
TTITLE6=Fanny Lumsden - Land of Gold 
TTITLE7=James Blundell - Strangers Hand 
TTITLE8=Germein Sisters - Da Da Doo
TTITLE9=The Wayward Henrys - Tears are Grey
TTITLE10=The Bushwackers - Leave It In The Ground
TTITLE11=Runaway Dixie - Poor Man's Gold
TTITLE12=Jeanie Feat. Aleyce Simmonds - This Cannot Be Love
TTITLE13=Kirsty Lee Akers - Wake Me Up When You're Sober
TTITLE14=Nick Payne - White Line Fever
TTITLE15=Shelley Minson - Rockabilly Man
TTITLE16=Katie Brianna - King
TTITLE17=Michael Waugh - Heyfield Girl
TTITLE18=Billy Bridge and Rebecca Lee Nye - We Knew 
TTITLE19=Lindsay Waddington - Twenty Five
EXTD=
EXTT0=
EXTT1=
EXTT2=
EXTT3=
EXTT4=
EXTT5=
EXTT6=
EXTT7=
EXTT8=
EXTT9=
EXTT10=
EXTT11=
EXTT12=
EXTT13=
EXTT14=
EXTT15=
EXTT16=
EXTT17=
EXTT18=
EXTT19=
PLAYORDER=
